# xmcd
#
# Track frame offsets:
#	150
#	12748
#	23736
#	36036
#	52123
#	67188
#	80885
#	96690
#	112099
#	127607
#	141707
#	159335
#
# Disc length: 2349
#
# Revision: 2
# Processed by: cddbd v1.5.1PL0 Copyright (c) Steve Scherf et al.
# Submitted via: CDex 1.30
# Normalized: r1:TDELIM( - )
#
DISCID=b3092b0c
DTITLE=Various Artist - New Country Classics - Honky Tonk Party
DYEAR=2001
DGENRE=Country
TTITLE0=Joe Diffie - If The Devil Danced (In Empty Pockets)
TTITLE1=Vern Gosdin - Set 'Em Up Joe
TTITLE2=Tanya Tucker - Strong Enough To Bend
TTITLE3=Earl Thomas Conley and Emmylou Harris - We Believe In Happy Endings
TTITLE4=Rosanne Cash - If You Change Your Mind
TTITLE5=Willie Nelson - Highwayman
TTITLE6=Doug Stone - A Jukebox With A Country Song
TTITLE7=Merle Haggard - Twinkle, Twinkle Lucky Star
TTITLE8=Ronnie Milsap - Houston Solution
TTITLE9=Ricky Van Shelton - I'll Leave This World Loving You
TTITLE10=Collin Raye - Love, Me
TTITLE11=Ricky Skaggs - Cajun Moon
EXTD=\nYEAR: 2001  ID3G:   2
EXTT0=
EXTT1=
EXTT2=
EXTT3=
EXTT4=
EXTT5=
EXTT6=
EXTT7=
EXTT8=
EXTT9=
EXTT10=
EXTT11=
PLAYORDER=
